<svg width="33" height="35" viewBox="0 0 33 35" fill="none" xmlns="http://www.w3.org/2000/svg">
<path d="M6 14C5.99904 11.8184 6.67766 9.69067 7.94154 7.91245C9.20543 6.13423 10.9918 4.79385 13.0525 4.07755C12.9727 3.57759 13.0023 3.06627 13.1393 2.57887C13.2763 2.09147 13.5174 1.63959 13.846 1.25441C14.1745 0.869227 14.5828 0.559917 15.0425 0.347817C15.5022 0.135718 16.0025 0.0258789 16.5087 0.0258789C17.015 0.0258789 17.5153 0.135718 17.975 0.347817C18.4347 0.559917 18.843 0.869227 19.1715 1.25441C19.5001 1.63959 19.7412 2.09147 19.8782 2.57887C20.0152 3.06627 20.0448 3.57759 19.965 4.07755C22.0224 4.79678 23.805 6.13842 25.0656 7.91639C26.3262 9.69437 27.0022 11.8205 27 14V24.5L32.25 28V29.75H0.75V28L6 24.5V14ZM20 31.5C20 32.4283 19.6313 33.3185 18.9749 33.9749C18.3185 34.6313 17.4283 35 16.5 35C15.5717 35 14.6815 34.6313 14.0251 33.9749C13.3687 33.3185 13 32.4283 13 31.5H20Z" fill="white"/>
</svg>
