<svg width="26" height="22" viewBox="0 0 26 22" fill="none" xmlns="http://www.w3.org/2000/svg">
<path fill-rule="evenodd" clip-rule="evenodd" d="M9.2025 20.0863C5.52375 17.2675 0.5 12.6112 0.5 8.20875C0.5 0.85375 7.375 -1.8925 13 3.7875C18.625 -1.8925 25.5 0.85375 25.5 8.20875C25.5 12.6112 20.475 17.2675 16.7975 20.0863C15.1325 21.3612 14.3 22 13 22C11.7 22 10.8675 21.3625 9.2025 20.0863ZM18.625 4.8125C18.8736 4.8125 19.1121 4.91127 19.2879 5.08709C19.4637 5.2629 19.5625 5.50136 19.5625 5.75V7.3125H21.125C21.3736 7.3125 21.6121 7.41127 21.7879 7.58709C21.9637 7.7629 22.0625 8.00136 22.0625 8.25C22.0625 8.49864 21.9637 8.7371 21.7879 8.91291C21.6121 9.08873 21.3736 9.1875 21.125 9.1875H19.5625V10.75C19.5625 10.9986 19.4637 11.2371 19.2879 11.4129C19.1121 11.5887 18.8736 11.6875 18.625 11.6875C18.3764 11.6875 18.1379 11.5887 17.9621 11.4129C17.7863 11.2371 17.6875 10.9986 17.6875 10.75V9.1875H16.125C15.8764 9.1875 15.6379 9.08873 15.4621 8.91291C15.2863 8.7371 15.1875 8.49864 15.1875 8.25C15.1875 8.00136 15.2863 7.7629 15.4621 7.58709C15.6379 7.41127 15.8764 7.3125 16.125 7.3125H17.6875V5.75C17.6875 5.50136 17.7863 5.2629 17.9621 5.08709C18.1379 4.91127 18.3764 4.8125 18.625 4.8125Z" fill="white"/>
</svg>
