<svg width="31" height="22" viewBox="0 0 31 22" fill="none" xmlns="http://www.w3.org/2000/svg">
<path d="M5.81783 22V10.5625L1.99964 13.25L0.363281 11.25L15.3633 0.75L20.8178 4.5625V2H24.9087V7.4375L30.3633 11.25L28.7269 13.25L24.9087 10.5625V22H16.7269V14.5H13.9996V22H5.81783ZM8.5451 19.5H11.2724V12H19.4542V19.5H22.1815V8.65625L15.3633 3.90625L8.5451 8.65625V19.5ZM12.636 9.53125H18.0906C18.0906 8.86458 17.8178 8.3175 17.2724 7.89C16.7269 7.4625 16.0906 7.24917 15.3633 7.25C14.636 7.25083 13.9996 7.46458 13.4542 7.89125C12.9087 8.31792 12.636 8.86458 12.636 9.53125Z" fill="white"/>
</svg>
