<svg width="34" height="30" viewBox="0 0 34 30" fill="none" xmlns="http://www.w3.org/2000/svg">
<path d="M28.6663 5H23.6663V3.33333C23.6663 2.44928 23.3152 1.60143 22.69 0.976311C22.0649 0.351189 21.2171 0 20.333 0H13.6663C12.7823 0 11.9344 0.351189 11.3093 0.976311C10.6842 1.60143 10.333 2.44928 10.333 3.33333V5H5.33301C4.00693 5 2.73516 5.52678 1.79747 6.46447C0.859792 7.40215 0.333008 8.67392 0.333008 10V25C0.333008 26.3261 0.859792 27.5979 1.79747 28.5355C2.73516 29.4732 4.00693 30 5.33301 30H28.6663C29.9924 30 31.2642 29.4732 32.2019 28.5355C33.1396 27.5979 33.6663 26.3261 33.6663 25V10C33.6663 8.67392 33.1396 7.40215 32.2019 6.46447C31.2642 5.52678 29.9924 5 28.6663 5ZM13.6663 3.33333H20.333V5H13.6663V3.33333ZM30.333 25C30.333 25.442 30.1574 25.866 29.8449 26.1785C29.5323 26.4911 29.1084 26.6667 28.6663 26.6667H5.33301C4.89098 26.6667 4.46706 26.4911 4.1545 26.1785C3.84194 25.866 3.66634 25.442 3.66634 25V15.65L11.4663 18.3333C11.6433 18.3571 11.8227 18.3571 11.9997 18.3333H21.9997C22.1804 18.3298 22.3598 18.3018 22.533 18.25L30.333 15.65V25ZM30.333 12.1333L21.733 15H12.2663L3.66634 12.1333V10C3.66634 9.55797 3.84194 9.13405 4.1545 8.82149C4.46706 8.50893 4.89098 8.33333 5.33301 8.33333H28.6663C29.1084 8.33333 29.5323 8.50893 29.8449 8.82149C30.1574 9.13405 30.333 9.55797 30.333 10V12.1333Z" fill="white"/>
</svg>
