<svg width="50" height="50" viewBox="0 0 50 50" fill="none" xmlns="http://www.w3.org/2000/svg">
<path d="M23.4375 27.3438C22.8159 27.3438 22.2198 27.0968 21.7802 26.6573C21.3407 26.2178 21.0938 25.6216 21.0938 25V8.78908L19.627 10.2559C19.1867 10.6962 18.5895 10.9435 17.9668 10.9435C17.3441 10.9435 16.7469 10.6962 16.3066 10.2559C15.8663 9.81558 15.619 9.2184 15.619 8.59572C15.619 7.97304 15.8663 7.37586 16.3066 6.93556L21.7754 1.46681C21.9931 1.24831 22.2519 1.07495 22.5368 0.956653C22.8216 0.838359 23.1271 0.777466 23.4355 0.777466C23.744 0.777466 24.0495 0.838359 24.3343 0.956653C24.6192 1.07495 24.878 1.24831 25.0957 1.46681L30.5645 6.93556C31.0048 7.37586 31.2521 7.97304 31.2521 8.59572C31.2521 9.2184 31.0048 9.81558 30.5645 10.2559C30.1242 10.6962 29.527 10.9435 28.9043 10.9435C28.2816 10.9435 27.6844 10.6962 27.2441 10.2559L25.7812 8.78908V25C25.7812 25.6216 25.5343 26.2178 25.0948 26.6573C24.6552 27.0968 24.0591 27.3438 23.4375 27.3438ZM38.2812 23.7344V18.75C38.2812 17.714 37.8697 16.7204 37.1371 15.9879C36.4046 15.2553 35.411 14.8438 34.375 14.8438H32.0312C31.4096 14.8438 30.8135 15.0907 30.374 15.5302C29.9344 15.9698 29.6875 16.5659 29.6875 17.1875C29.6875 17.8091 29.9344 18.4053 30.374 18.8448C30.8135 19.2843 31.4096 19.5313 32.0312 19.5313H33.5938V32.8711C32.4025 32.1842 31.0179 31.9094 29.6546 32.0891C28.2913 32.2689 27.0253 32.8933 26.0528 33.8656C25.0804 34.8378 24.4557 36.1036 24.2756 37.4669C24.0955 38.8302 24.37 40.2148 25.0566 41.4063C25.0781 41.4453 25.1016 41.4824 25.125 41.5196L29.4727 48.1602C29.8132 48.6808 30.3467 49.0447 30.9556 49.172C31.5646 49.2993 32.1991 49.1795 32.7197 48.8389C33.2403 48.4983 33.6043 47.9649 33.7316 47.3559C33.8589 46.747 33.739 46.1124 33.3984 45.5918L29.1016 39.0176C28.9003 38.655 28.8514 38.2273 28.9655 37.8286C29.0796 37.4299 29.3474 37.0929 29.71 36.8916C30.0726 36.6904 30.5003 36.6414 30.899 36.7555C31.2977 36.8696 31.6347 37.1374 31.8359 37.5C31.8574 37.5391 31.8809 37.5762 31.9062 37.6133L33.9844 40.7969C34.2621 41.2156 34.667 41.534 35.1394 41.7051C35.6119 41.8762 36.1268 41.8909 36.6082 41.7471C37.0896 41.6034 37.5121 41.3087 37.8133 40.9065C38.1146 40.5044 38.2786 40.0161 38.2812 39.5137V30.0781C40.2949 32.5361 41.3987 35.6136 41.4062 38.791V46.875C41.4062 47.4966 41.6532 48.0928 42.0927 48.5323C42.5323 48.9718 43.1284 49.2188 43.75 49.2188C44.3716 49.2188 44.9677 48.9718 45.4073 48.5323C45.8468 48.0928 46.0938 47.4966 46.0938 46.875V38.7988C46.0849 35.8472 45.3714 32.9404 44.0125 30.3201C42.6537 27.6999 40.6888 25.442 38.2812 23.7344ZM14.8438 14.8438H12.5C11.464 14.8438 10.4704 15.2553 9.73786 15.9879C9.0053 16.7204 8.59375 17.714 8.59375 18.75V39.0625C8.59375 39.6841 8.84068 40.2803 9.28022 40.7198C9.71976 41.1593 10.3159 41.4063 10.9375 41.4063C11.5591 41.4063 12.1552 41.1593 12.5948 40.7198C13.0343 40.2803 13.2812 39.6841 13.2812 39.0625V19.5313H14.8438C15.4654 19.5313 16.0615 19.2843 16.501 18.8448C16.9406 18.4053 17.1875 17.8091 17.1875 17.1875C17.1875 16.5659 16.9406 15.9698 16.501 15.5302C16.0615 15.0907 15.4654 14.8438 14.8438 14.8438Z" fill="#55B000"/>
</svg>
