<svg width="50" height="50" viewBox="0 0 50 50" fill="none" xmlns="http://www.w3.org/2000/svg">
<g clip-path="url(#clip0_202_257)">
<path fill-rule="evenodd" clip-rule="evenodd" d="M35.9375 43.75C43.7188 43.75 50 40.625 50 35.9375V6.25C50 3.125 43.75 0 35.9375 0C28.125 0 21.875 3.125 21.875 6.25V17.1875C25.5312 18.7188 28.6563 21.2812 30.875 24.5312C32.4062 24.8312 34.0938 24.9969 35.9375 24.9969C40.0312 24.9969 43.4375 24.1813 45.875 22.8531C46.221 22.6629 46.5579 22.4565 46.8844 22.2344V26.5469C46.8844 27.2812 46.3 28.4219 44.3781 29.4719C42.5156 30.4875 39.6594 31.2344 35.9406 31.2344C35.1969 31.2344 34.4885 31.2063 33.8156 31.15C34.0656 32.1813 34.2323 33.2333 34.3156 34.3062C34.8427 34.3354 35.3844 34.35 35.9406 34.35C40.0344 34.35 43.4406 33.5344 45.8781 32.2062C46.2242 32.0161 46.561 31.8096 46.8875 31.5875V35.9C46.8875 36.6375 46.4219 37.7313 44.4156 38.8125C42.4406 39.875 39.4781 40.5875 35.9469 40.5875C35.2281 40.5875 34.5323 40.5583 33.8594 40.5C33.6191 41.5387 33.2962 42.5565 32.8938 43.5438C33.8771 43.6542 34.8937 43.7094 35.9437 43.7094L35.9375 43.75ZM44.375 20.125C46.2969 19.075 46.8813 17.9344 46.8813 17.2V12.8875C46.5583 13.1083 46.2219 13.3146 45.8719 13.5063C43.4406 14.8344 40.0281 15.65 35.9344 15.65C31.8406 15.65 28.4344 14.8344 25.9969 13.5063C25.6508 13.3161 25.314 13.1096 24.9875 12.8875V17.2C24.9875 17.9344 25.5719 19.075 27.4938 20.1219C29.3563 21.1375 32.2125 21.8844 35.9313 21.8844C39.65 21.8844 42.4937 21.1375 44.3687 20.1219L44.375 20.125ZM25 7.8125C25 6.9125 25.3906 6.04688 26.1187 5.51875C26.5156 5.23125 26.9469 4.94375 27.2875 4.7875C28.1406 4.39375 32.4125 3.12188 35.9437 3.12188C39.475 3.12188 42.5375 3.83125 44.6 4.7875C44.9875 4.96562 45.4156 5.24375 45.7938 5.51875C46.5156 6.04063 46.8875 6.9 46.8875 7.79063V7.80938C46.8875 8.54375 46.3031 9.68437 44.3812 10.7344C42.5187 11.75 39.6625 12.4969 35.9437 12.4969C32.225 12.4969 29.3813 11.7469 27.5063 10.7344C25.5844 9.6875 25 8.54375 25 7.8125Z" fill="#F17C1C"/>
<path fill-rule="evenodd" clip-rule="evenodd" d="M28.125 35.9375C28.125 43.7188 21.8438 50 14.0625 50C6.28125 50 0 43.7188 0 35.9375C0 28.1562 6.28125 21.875 14.0625 21.875C21.8438 21.875 28.125 28.1562 28.125 35.9375ZM25 35.9375C25 41.9688 20.0938 46.875 14.0625 46.875C8.03125 46.875 3.125 41.9688 3.125 35.9375C3.125 29.9062 8.03125 25 14.0625 25C20.0938 25 25 29.9062 25 35.9375Z" fill="#F17C1C"/>
</g>
<defs>
<clipPath id="clip0_202_257">
<rect width="50" height="50" fill="white"/>
</clipPath>
</defs>
</svg>
