<svg width="50" height="50" viewBox="0 0 50 50" fill="none" xmlns="http://www.w3.org/2000/svg">
<path d="M24.9997 26.0416C23.0658 26.0416 21.2111 26.8099 19.8437 28.1773C18.4762 29.5448 17.708 31.3994 17.708 33.3333C17.708 35.2672 18.4762 37.1218 19.8437 38.4893C21.2111 39.8567 23.0658 40.625 24.9997 40.625C26.9335 40.625 28.7882 39.8567 30.1557 38.4893C31.5231 37.1218 32.2913 35.2672 32.2913 33.3333C32.2913 31.3994 31.5231 29.5448 30.1557 28.1773C28.7882 26.8099 26.9335 26.0416 24.9997 26.0416ZM21.8747 33.3333C21.8747 32.5045 22.2039 31.7096 22.79 31.1236C23.376 30.5375 24.1709 30.2083 24.9997 30.2083C25.8285 30.2083 26.6233 30.5375 27.2094 31.1236C27.7954 31.7096 28.1247 32.5045 28.1247 33.3333C28.1247 34.1621 27.7954 34.9569 27.2094 35.543C26.6233 36.1291 25.8285 36.4583 24.9997 36.4583C24.1709 36.4583 23.376 36.1291 22.79 35.543C22.2039 34.9569 21.8747 34.1621 21.8747 33.3333Z" fill="white"/>
<path d="M36.5125 10.6583L29.8896 1.37292L5.5375 20.8271L4.1875 20.8125V20.8333H3.125V45.8333H46.875V20.8333H44.8708L40.8833 9.16876L36.5125 10.6583ZM40.4687 20.8333H19.5771L35.1375 15.5292L38.3083 14.5146L40.4687 20.8333ZM32.3958 12.0625L16.3333 17.5375L29.0542 7.37501L32.3958 12.0625ZM7.29167 37.8521V28.8104C8.1712 28.5 8.9701 27.9967 9.6298 27.3373C10.2895 26.678 10.7933 25.8794 11.1042 25H38.8958C39.2065 25.8798 39.7101 26.6788 40.3698 27.3385C41.0295 27.9982 41.8286 28.5019 42.7083 28.8125V37.8542C41.8286 38.1648 41.0295 38.6685 40.3698 39.3282C39.7101 39.9879 39.2065 40.7869 38.8958 41.6667H11.1083C10.7962 40.7868 10.2916 39.9878 9.63129 39.3279C8.97099 38.6679 8.17167 38.1637 7.29167 37.8521Z" fill="white"/>
</svg>
