<svg width="9" height="34" viewBox="0 0 9 34" fill="none" xmlns="http://www.w3.org/2000/svg">
<path d="M4.5 9.06667C5.39002 9.06667 6.26004 8.80079 7.00006 8.30266C7.74008 7.80453 8.31686 7.09652 8.65746 6.26817C8.99805 5.43981 9.08716 4.52831 8.91353 3.64893C8.7399 2.76955 8.31131 1.96178 7.68198 1.32778C7.05264 0.693787 6.25082 0.262028 5.37791 0.0871088C4.50499 -0.0878109 3.60019 0.00196421 2.77792 0.345081C1.95566 0.688199 1.25286 1.26925 0.758389 2.01475C0.263923 2.76025 2.42502e-06 3.63673 2.42502e-06 4.53334C0.00130521 5.73525 0.475829 6.88756 1.31946 7.73744C2.16309 8.58732 3.30693 9.06536 4.5 9.06667ZM4.5 2.26667C4.94501 2.26667 5.38002 2.39961 5.75003 2.64867C6.12004 2.89774 6.40843 3.25174 6.57873 3.66592C6.74902 4.0801 6.79358 4.53585 6.70677 4.97554C6.61995 5.41523 6.40566 5.81911 6.09099 6.13611C5.77632 6.45311 5.37541 6.66899 4.93895 6.75645C4.5025 6.84391 4.0501 6.79902 3.63896 6.62746C3.22783 6.4559 2.87643 6.16538 2.62919 5.79263C2.38196 5.41988 2.25 4.98164 2.25 4.53334C2.25067 3.93238 2.48794 3.35624 2.90975 2.93131C3.33156 2.50637 3.90347 2.26734 4.5 2.26667ZM4.5 24.9333C3.60998 24.9333 2.73996 25.1992 1.99994 25.6973C1.25991 26.1955 0.683138 26.9035 0.342544 27.7318C0.00194976 28.5602 -0.0871652 29.4717 0.0864682 30.3511C0.260102 31.2305 0.688685 32.0382 1.31802 32.6722C1.94736 33.3062 2.74918 33.738 3.62209 33.9129C4.49501 34.0878 5.39981 33.998 6.22207 33.6549C7.04434 33.3118 7.74714 32.7308 8.24161 31.9853C8.73608 31.2397 9 30.3633 9 29.4667C8.99869 28.2648 8.52417 27.1124 7.68054 26.2626C6.83691 25.4127 5.69307 24.9346 4.5 24.9333ZM4.5 31.7333C4.05499 31.7333 3.61998 31.6004 3.24997 31.3513C2.87996 31.1023 2.59157 30.7483 2.42127 30.3341C2.25097 29.9199 2.20642 29.4642 2.29323 29.0245C2.38005 28.5848 2.59434 28.1809 2.90901 27.8639C3.22368 27.5469 3.62459 27.331 4.06105 27.2436C4.4975 27.1561 4.9499 27.201 5.36104 27.3725C5.77217 27.5441 6.12357 27.8346 6.37081 28.2074C6.61804 28.5801 6.75 29.0184 6.75 29.4667C6.74933 30.0676 6.51206 30.6438 6.09025 31.0687C5.66844 31.4936 5.09653 31.7327 4.5 31.7333ZM4.5 12.4667C3.60998 12.4667 2.73996 12.7325 1.99994 13.2307C1.25991 13.7288 0.683138 14.4368 0.342544 15.2652C0.00194976 16.0935 -0.0871652 17.005 0.0864682 17.8844C0.260102 18.7638 0.688685 19.5716 1.31802 20.2055C1.94736 20.8395 2.74918 21.2713 3.62209 21.4462C4.49501 21.6211 5.39981 21.5314 6.22207 21.1883C7.04434 20.8451 7.74714 20.2641 8.24161 19.5186C8.73608 18.7731 9 17.8966 9 17C8.99869 15.7981 8.52417 14.6458 7.68054 13.7959C6.83691 12.946 5.69307 12.468 4.5 12.4667ZM4.5 19.2667C4.05499 19.2667 3.61998 19.1337 3.24997 18.8847C2.87996 18.6356 2.59157 18.2816 2.42127 17.8674C2.25097 17.4532 2.20642 16.9975 2.29323 16.5578C2.38005 16.1181 2.59434 15.7142 2.90901 15.3972C3.22368 15.0802 3.62459 14.8643 4.06105 14.7769C4.4975 14.6894 4.9499 14.7343 5.36104 14.9059C5.77217 15.0774 6.12357 15.368 6.37081 15.7407C6.61804 16.1135 6.75 16.5517 6.75 17C6.74933 17.601 6.51206 18.1771 6.09025 18.602C5.66844 19.027 5.09653 19.266 4.5 19.2667Z" fill="white"/>
</svg>
